<svg width="280" height="490" viewBox="0 0 280 490" fill="none" xmlns="http://www.w3.org/2000/svg">
<g filter="url(#filter0_d_118_120)">
<path d="M58.2434 1.73455C57.1756 2.55315 56.3367 3.8672 56.3367 4.66425C56.3367 6.68921 64.8279 12.6564 72.9632 16.3186C77.0308 18.1497 80.9713 20.5839 81.5815 21.5964C82.2933 22.6089 83.4881 29.6962 84.3271 37.4083C86.005 51.4969 86.844 54.7282 89.1066 56.0422C92.4625 57.9595 93.1743 55.8484 94.598 40.338C95.2081 34.2632 96.0216 28.9853 96.4029 28.6837C96.7588 28.2744 102.148 30.2132 108.352 32.8414C116.843 36.3958 119.716 38.1192 119.716 39.5194C119.716 40.6396 120.326 42.7508 120.911 44.1726C121.978 46.4991 122.461 46.7145 123.91 45.702C124.877 44.9911 125.715 43.1601 125.715 41.6521C125.715 39.6272 127.139 37.6022 130.495 34.9741C134.308 31.8289 134.919 30.9241 133.495 30.321C132.427 29.7178 130.266 30.1271 128.004 31.0319C124.292 32.6475 124.19 32.6475 117.962 29.1146C114.504 27.0896 109.725 23.9445 107.309 22.1349L102.886 18.9036L116.741 10.9115C124.393 6.55996 130.368 2.40237 130.139 1.79919C129.173 -0.419647 120.097 0.980591 108.987 5.13822C102.759 7.46477 96.6826 9.79132 95.5895 10.3083C91.1659 12.441 86.5135 11.3208 76.1156 5.74136C65.0566 -0.075016 61.345 -1.0013 58.2434 1.73455Z" fill="black"/>
<path d="M135.224 43.1816C135.224 43.6986 136.775 45.5081 138.682 47.2315C148.012 55.7407 177.528 90.9836 187.697 105.977C240.296 183.076 249.017 255.092 214.721 326.805C210.171 336.327 195.832 360.023 193.086 362.867C192.12 363.685 191.408 364.698 191.408 365.086C191.408 365.904 176.943 383.935 170.002 391.626C158.994 403.991 146.207 416.334 129.351 430.832L112.14 445.826L115.369 452.116C117.174 455.67 120.631 462.241 122.894 466.808L127.089 475.209L130.19 473.292C131.995 472.172 140.944 464.783 150.147 456.791C190.671 421.634 220.797 383.547 238.364 345.052C254.254 310.498 259.516 286.694 259.516 250.934C259.389 193.912 239.203 145.27 194.485 94.3227C183.375 81.6559 163.392 63.6251 147.02 51.3676C144.147 49.1488 140.334 46.1975 138.529 44.7757C136.648 43.4832 135.224 42.6646 135.224 43.1816Z" fill="#ED3237"/>
<path d="M1.44903 210.93C2.16086 212.137 3.25414 214.377 3.71176 215.799C4.3219 217.22 5.74551 220.667 7.06749 223.489C8.38948 226.225 13.0418 236.565 17.4654 246.281C21.889 255.996 27.2786 267.866 29.4141 272.627C31.5751 277.388 40.0663 296.237 48.4305 314.677C56.6674 333.009 68.6416 359.442 74.9718 373.422C81.2004 387.296 89.6662 406.145 93.7338 415.15C97.8015 424.262 101.615 431.651 102.098 431.651C102.708 431.651 112.013 425.684 122.894 418.273C145.24 403.086 143.817 406.016 136.749 390.721C134.487 385.658 131.004 377.86 128.97 373.401C126.936 368.942 124.902 364.375 124.318 363.276C123.707 362.156 121.572 357.395 119.538 352.634C117.504 347.874 114.886 341.993 113.691 339.472C111.301 334 97.8016 303.906 93.9627 295.397C77.8193 259.141 65.0315 230.469 60.7351 220.947L55.4725 209.293L27.7363 208.991L0 208.798L1.44903 210.93Z" fill="#ED3237"/>
</g>
<defs>
<filter id="filter0_d_118_120" x="0" y="0.260307" width="279.516" height="488.949" filterUnits="userSpaceOnUse" color-interpolation-filters="sRGB">
<feFlood flood-opacity="0" result="BackgroundImageFix"/>
<feColorMatrix in="SourceAlpha" type="matrix" values="0 0 0 0 0 0 0 0 0 0 0 0 0 0 0 0 0 0 127 0" result="hardAlpha"/>
<feOffset dx="16" dy="10"/>
<feGaussianBlur stdDeviation="2"/>
<feComposite in2="hardAlpha" operator="out"/>
<feColorMatrix type="matrix" values="0 0 0 0 0 0 0 0 0 0 0 0 0 0 0 0 0 0 0.25 0"/>
<feBlend mode="normal" in2="BackgroundImageFix" result="effect1_dropShadow_118_120"/>
<feBlend mode="normal" in="SourceGraphic" in2="effect1_dropShadow_118_120" result="shape"/>
</filter>
</defs>
</svg>
