<svg width="172" height="84" viewBox="0 0 172 84" fill="none" xmlns="http://www.w3.org/2000/svg">
<path d="M7.8064 0.886891C7.66382 1.04347 7.55688 1.27836 7.55688 1.3958C7.55688 1.74811 8.69753 2.80504 9.80253 3.43138C10.3372 3.74454 10.8719 4.17515 10.9788 4.37088C11.0858 4.56661 11.2283 5.78013 11.3353 7.15024C11.5491 9.61643 11.6561 10.2036 11.9769 10.4385C12.4403 10.7908 12.5116 10.3993 12.7254 7.69828C12.7967 6.64134 12.9037 5.70184 12.975 5.6627C13.0106 5.58441 13.7591 5.93672 14.579 6.40647C15.7196 7.0328 16.1117 7.34597 16.1117 7.58085C16.1117 7.77658 16.183 8.12889 16.2543 8.40291C16.3969 8.79437 16.4682 8.83351 16.6464 8.67693C16.789 8.55949 16.8959 8.24633 16.8959 7.9723C16.8959 7.61999 17.0742 7.26768 17.5375 6.79793C18.0722 6.24988 18.1435 6.0933 17.9296 5.97586C17.7871 5.85842 17.5019 5.93672 17.1811 6.09331C16.6821 6.36733 16.6821 6.36732 15.8266 5.74098C15.3632 5.38867 14.7216 4.84064 14.4008 4.52747L13.7948 3.97942L15.684 2.57017C16.7177 1.78725 17.5375 1.08263 17.5019 0.965188C17.3593 0.573729 16.1474 0.808604 14.6503 1.55238C13.7948 1.94384 12.975 2.37444 12.8324 2.45273C12.2264 2.84419 11.6204 2.64846 10.1946 1.66981C8.73318 0.573724 8.23414 0.41714 7.8064 0.886891Z" fill="black"/>
<path d="M18.2147 8.16802C18.2147 8.24631 18.4285 8.55947 18.678 8.87264C19.9256 10.3602 23.9535 16.5452 25.3081 19.168C32.4371 32.7125 33.6134 45.3566 28.9795 57.9225C28.3735 59.6058 26.4131 63.7552 26.0566 64.2641C25.914 64.4207 25.8427 64.5773 25.8427 64.6556C25.8427 64.8122 23.8822 67.983 22.9555 69.314C21.4584 71.467 19.7474 73.6591 17.4661 76.2036L15.1492 78.8264L15.5769 79.9225C15.8264 80.5488 16.2898 81.6841 16.6106 82.5061L17.1809 83.9937L17.6087 83.6414C17.8582 83.4456 19.0701 82.1538 20.3177 80.7446C25.8071 74.5595 29.8706 67.9047 32.2589 61.1324C34.3976 55.0648 35.1105 50.8762 35.1105 44.6129C35.0748 34.5915 32.3658 26.0577 26.3061 17.1324C24.809 14.9011 22.1 11.7303 19.89 9.57727C19.4979 9.18581 18.9989 8.67692 18.7493 8.40289C18.4285 8.20717 18.2147 8.08972 18.2147 8.16802Z" fill="#EC3137"/>
<path d="M0.106937 37.6058C0.213872 37.8015 0.356451 38.1929 0.427741 38.467C0.499032 38.7018 0.712904 39.3282 0.89113 39.8371C1.06936 40.3068 1.71097 42.1467 2.31694 43.8299C2.92291 45.5524 3.63581 47.6271 3.92097 48.4492C4.20613 49.2712 5.34678 52.5986 6.48742 55.8477C7.59243 59.0577 9.23211 63.7161 10.0876 66.1431C10.9431 68.5702 12.0837 71.8976 12.6184 73.4634C13.1531 75.0684 13.6878 76.3602 13.759 76.3602C13.8303 76.3602 15.1136 75.3033 16.575 74.0115C19.6049 71.3495 19.391 71.8584 18.4642 69.1574C18.1434 68.257 17.68 66.8869 17.4305 66.104C17.1453 65.3211 16.8958 64.5381 16.7889 64.3424C16.7176 64.1467 16.4324 63.3246 16.1473 62.4634C15.8621 61.6413 15.5057 60.5844 15.3631 60.1538C15.0423 59.1751 13.2244 53.9296 12.6897 52.4029C10.5153 46.0221 8.76872 41.0114 8.19839 39.3282L7.48549 37.2926L3.74275 37.2534L0 37.2143L0.106937 37.6058Z" fill="#ED3237"/>
<path d="M50.7231 43.7517C50.8301 45.161 50.9014 45.2393 52.1846 45.3567L53.5035 45.4742V52.5204V59.5275H55.1075H56.7115V52.5204V45.4742L58.0661 45.3567C59.3136 45.2393 59.3849 45.161 59.4919 43.7517L59.5988 42.3033H55.1075H50.6162L50.7231 43.7517Z" fill="#FFFDFD"/>
<path d="M67.405 50.9154V59.5275H68.8308H70.2566V55.8087V52.0898H72.93H75.6034V55.8087V59.5275H77.2075H78.8115V50.9154V42.3033H77.2075H75.6034V45.6307V48.9973L73.037 48.8799L70.4349 48.7624L70.3279 45.5133L70.221 42.3033H68.8308H67.405V50.9154Z" fill="#FFFDFD"/>
<path d="M88.0793 50.9154V59.5275H92.3568C96.9906 59.5275 96.6698 59.6841 96.7768 57.3745C96.8124 56.6699 96.5629 56.5916 93.8539 56.4742L90.8953 56.3567L91.0022 54.1254L91.1092 51.8941L93.8539 51.7767C96.7768 51.6592 97.0263 51.4635 96.7055 49.4279C96.5629 48.6058 96.3847 48.5667 93.7469 48.5667H90.931V47.0009V45.435H93.7469H96.5629L96.7055 44.0649C96.7768 43.282 96.7768 42.5774 96.6698 42.4991C96.5985 42.3816 94.6024 42.3033 92.2855 42.3033H88.0793V50.9154Z" fill="#FFFDFD"/>
<path d="M110.572 42.6165C110.643 42.7731 111.89 46.6877 113.352 51.2286L116.025 59.5275H117.487H118.984L121.693 51.1895C123.226 46.6485 124.438 42.7731 124.438 42.5774C124.438 42.4208 123.832 42.3033 123.047 42.3033H121.693L120.053 47.0792C119.162 49.7411 118.307 52.3638 118.2 52.9902C118.057 53.5774 117.843 54.1254 117.665 54.2429C117.522 54.3211 116.524 51.7375 115.455 48.4493L113.494 42.4991L111.997 42.3816C111.142 42.3033 110.536 42.4208 110.572 42.6165Z" fill="#FFFDFD"/>
<path d="M132.636 50.9154V59.5275H134.062H135.487V50.9154V42.3033H134.062H132.636V50.9154Z" fill="#FFFDFD"/>
<path d="M144.755 50.9546V59.6058L148.462 59.4493C151.813 59.3318 152.276 59.2535 153.096 58.3923C154.237 57.2179 154.914 54.9083 154.593 53.4599C154.451 52.8727 153.88 51.8549 153.274 51.2286C152.062 49.8976 152.062 49.8193 152.811 48.919C153.132 48.5275 153.381 47.588 153.417 46.8443C153.488 43.7126 151.635 42.3033 147.429 42.3033H144.755V50.9546ZM150.387 46.1396C151.314 47.4315 150.387 48.9582 148.64 48.9582C147.642 48.9582 147.607 48.8799 147.607 47.2749C147.607 46.3354 147.678 45.4742 147.785 45.3567C148.141 44.9653 149.924 45.5133 150.387 46.1396ZM151.171 52.8727C152.704 54.556 151.67 56.3959 149.175 56.3959H147.607V54.2428V52.0898H149.033C149.995 52.0898 150.708 52.3638 151.171 52.8727Z" fill="#FFFDFD"/>
<path d="M163.291 50.9154V59.5275H167.568H171.846V57.9617V56.3959H168.994H166.107L166.214 54.1254L166.321 51.8941L169.101 51.7767L171.846 51.6592V50.1325V48.5667H168.994H166.142V47.0009V45.435H168.994H171.846V43.8692V42.3033H167.568H163.291V50.9154Z" fill="#FFFDFD"/>
</svg>
