<svg width="2322" height="834" viewBox="0 0 2322 834" fill="none" xmlns="http://www.w3.org/2000/svg">
<path d="M1273.91 405.898C1262.37 417.436 1261.89 428.973 1271.98 443.395C1286.88 464.547 1321.98 451.087 1321.98 424.166C1321.98 412.629 1305.15 396.284 1293.13 396.284C1287.85 396.284 1279.19 400.61 1273.91 405.898Z" fill="#E00B0B"/>
<path d="M514.369 533.291V665.491H537.925H561.48L563.403 603.958C565.806 536.656 572.536 513.101 593.207 499.64C604.744 491.949 606.667 491.949 617.724 499.159C624.454 503.967 632.626 513.101 635.03 520.312C643.202 540.502 636.953 628.956 625.415 665.491C616.282 694.335 616.282 697.219 623.493 702.507C633.588 710.199 639.837 704.911 656.181 676.067C688.39 618.38 698.004 539.06 676.852 501.563C665.796 481.853 643.683 468.393 623.012 468.393C605.706 468.393 577.344 480.892 573.978 490.026C566.768 508.293 562.441 493.391 562.441 449.164V401.091H538.405H514.369V533.291Z" fill="#E00B0B"/>
<path d="M1360.43 533.772V665.972L1370.53 664.53C1376.3 663.568 1383.51 658.761 1386.39 653.473C1402.26 624.629 1402.26 624.629 1410.43 640.974C1429.18 677.029 1481.1 679.913 1515.23 647.704C1543.11 620.783 1550.8 555.885 1531.09 515.023C1511.38 473.2 1458.98 456.855 1424.37 481.853L1408.51 492.91V447.241V401.091H1384.47H1360.43V533.772ZM1475.33 507.332C1508.98 543.386 1491.19 646.262 1451.77 646.262C1412.35 646.262 1396.01 550.597 1428.22 509.255C1440.71 493.871 1461.87 493.391 1475.33 507.332Z" fill="#E00B0B"/>
<path d="M312.467 439.549V453.971H341.31H370.154V559.731V665.491H401.4H432.647V559.731V453.971H461.49H490.333V439.549V425.127H401.4H312.467V439.549Z" fill="#E00B0B"/>
<path d="M769.15 475.604C732.135 492.429 715.31 521.273 715.31 568.865C714.829 625.11 744.153 663.087 792.706 668.856C822.51 672.221 855.68 661.165 870.101 642.897C891.253 615.976 873.947 604.919 848.95 629.917C835.97 642.897 828.759 646.262 813.376 646.262C797.513 646.262 791.744 643.378 781.649 631.359C774.919 623.187 769.15 615.015 769.15 612.611C769.15 610.207 768.189 605.4 766.266 601.554C764.343 595.786 769.631 595.305 799.436 597.228C828.279 599.151 837.893 597.709 854.238 589.536C899.425 566.461 899.906 503.005 854.718 479.93C833.086 468.874 789.821 466.47 769.15 475.604ZM835.97 504.928C850.392 523.196 849.43 554.443 834.528 568.865C824.914 577.999 818.664 579.441 795.109 577.999C767.708 576.557 766.747 576.076 765.305 562.615C762.901 544.348 776.842 508.774 789.821 499.64C805.685 488.583 824.914 490.506 835.97 504.928Z" fill="#E00B0B"/>
<path d="M1617.14 478.007C1549.84 511.658 1549.84 630.398 1617.14 661.165C1642.14 672.702 1670.02 672.702 1695.02 661.165C1712.8 652.992 1735.4 631.359 1735.4 622.226C1735.4 615.976 1713.76 612.611 1711.84 618.38C1707.51 631.84 1685.4 646.262 1669.54 646.262C1647.9 646.262 1636.37 639.532 1627.23 622.226C1614.25 597.709 1616.66 595.305 1650.79 597.228C1686.84 599.631 1710.4 592.901 1726.26 576.076C1735.88 565.981 1737.8 558.77 1737.8 534.733C1737.8 508.293 1736.36 504.928 1722.42 492.429C1694.53 467.431 1650.31 461.663 1617.14 478.007ZM1682.52 497.237C1703.19 508.293 1705.59 557.808 1685.88 571.749C1674.82 579.441 1631.56 581.364 1620.98 574.634C1615.7 571.269 1615.22 565.5 1620.02 543.867C1628.68 501.563 1654.63 482.334 1682.52 497.237Z" fill="#E00B0B"/>
<path d="M1269.1 569.346V665.491H1293.13H1317.17V569.346V473.2H1293.13H1269.1V569.346Z" fill="#E00B0B"/>
<path d="M249.974 742.407C242.282 750.099 240.359 758.271 240.359 782.308C240.359 813.074 245.647 825.093 261.03 830.381C269.683 833.746 288.431 819.324 288.431 809.709C288.431 802.018 277.856 803.941 271.126 813.074C261.03 827.015 253.339 814.036 253.339 783.269C253.339 752.503 261.03 739.523 271.126 752.983C277.856 762.598 288.431 764.521 288.431 756.829C288.431 750.58 270.645 732.793 264.395 732.793C261.992 732.793 255.262 737.119 249.974 742.407Z" fill="#FFFDFD"/>
<path d="M538.405 736.639C524.464 740.965 519.177 753.945 519.177 784.231C519.177 808.267 521.099 816.44 528.791 824.131C540.809 836.149 545.616 836.149 557.153 824.612C583.112 798.653 567.729 727.024 538.405 736.639ZM552.827 756.349C564.845 779.424 552.346 830.381 537.925 815.959C531.194 809.229 529.272 769.328 534.56 755.387C539.367 744.811 546.577 744.811 552.827 756.349Z" fill="#FFFDFD"/>
<path d="M1188.82 740.004C1176.32 748.657 1170.55 782.788 1177.76 808.748C1183.05 829.419 1192.66 836.149 1205.64 829.419C1209.97 827.496 1216.7 826.535 1220.06 827.496C1224.87 829.419 1225.83 823.65 1224.87 804.421C1223.43 781.827 1221.99 778.462 1212.85 777.02C1205.16 776.058 1201.8 777.981 1201.8 782.788C1201.8 787.115 1204.2 790.48 1206.6 790.48C1209.49 790.48 1211.41 795.768 1211.41 802.498C1211.41 816.439 1197.95 824.131 1191.7 814.036C1184.97 802.979 1186.9 764.521 1194.59 753.945C1201.32 745.292 1202.28 745.292 1208.53 752.983C1215.26 762.598 1225.83 764.521 1225.83 756.829C1225.83 751.06 1208.05 732.793 1202.76 732.793C1200.84 732.793 1194.59 736.158 1188.82 740.004Z" fill="#FFFDFD"/>
<path d="M1764.72 740.485C1746.93 753.464 1753.66 777.02 1779.14 790.48C1792.12 797.691 1791.64 819.324 1778.66 819.324C1773.37 819.324 1767.6 815.959 1766.16 812.113C1762.8 803.46 1754.62 802.498 1754.62 810.671C1755.1 830.381 1784.43 837.592 1796.45 821.247C1806.54 807.306 1803.66 795.287 1785.87 778.943C1768.57 762.598 1763.76 747.215 1776.26 747.215C1780.58 747.215 1784.91 750.58 1786.35 754.426C1790.68 765.482 1798.85 763.079 1796.93 751.541C1795 737.119 1777.7 731.351 1764.72 740.485Z" fill="#FFFDFD"/>
<path d="M0 783.269V828.938H19.2288C29.8046 828.938 38.4575 826.535 38.4575 824.131C38.4575 821.247 31.7275 819.324 23.5552 819.324C10.0951 819.324 9.13366 818.362 10.5758 803.46C11.5373 790.48 14.4216 787.596 25.4781 786.634C43.2647 784.711 41.8225 776.058 23.5552 776.058C10.5758 776.058 9.13366 774.616 10.5758 762.598C11.5373 752.503 14.9023 749.137 25.4781 748.176C45.6683 745.772 40.8611 737.6 19.2288 737.6H0V783.269Z" fill="#FFFDFD"/>
<path d="M72.1078 783.269V828.938H88.4523C111.046 828.938 120.18 814.997 120.18 780.385C120.18 749.137 111.527 737.6 87.4909 737.6H72.1078V783.269ZM99.9896 752.983C113.45 770.289 108.642 819.324 93.7402 819.324C87.9716 819.324 86.5294 811.632 86.5294 783.269C86.5294 748.176 89.8945 740.965 99.9896 752.983Z" fill="#FFFDFD"/>
<path d="M153.83 776.058C153.83 808.267 155.272 815.959 163.925 824.612C174.02 834.707 190.845 833.746 198.056 822.208C203.825 814.036 202.863 737.6 197.095 737.6C194.21 737.6 192.288 752.503 192.288 772.213C192.288 810.19 187.961 822.208 175.943 817.882C169.694 815.478 168.252 807.306 168.252 776.058C168.252 745.292 166.809 737.6 161.041 737.6C155.272 737.6 153.83 745.292 153.83 776.058Z" fill="#FFFDFD"/>
<path d="M324.966 781.346C320.64 805.383 317.755 826.054 319.197 827.496C323.524 831.823 331.696 823.65 331.696 814.036C331.696 807.306 335.061 804.902 343.714 804.902C353.328 804.902 355.732 807.306 355.732 816.92C355.732 824.612 358.616 828.938 362.943 828.938C371.596 828.938 371.596 832.303 362.943 789.519C352.848 740.965 351.406 737.6 341.791 737.6C335.061 737.6 331.696 746.253 324.966 781.346ZM347.56 774.616C349.963 786.634 349.002 790.48 343.714 790.48C336.023 790.48 335.061 784.711 339.388 767.405C343.233 753.945 343.714 754.906 347.56 774.616Z" fill="#FFFDFD"/>
<path d="M389.382 741.927C389.382 744.33 393.709 747.215 398.997 748.657C407.65 751.06 408.611 755.387 408.611 789.999C408.611 812.594 410.534 828.938 413.418 828.938C416.303 828.938 418.225 812.594 418.225 789.999C418.225 755.387 419.187 751.06 427.84 748.657C445.626 743.849 437.454 737.6 413.418 737.6C400.439 737.6 389.382 739.523 389.382 741.927Z" fill="#FFFDFD"/>
<path d="M471.105 783.269C471.105 810.671 473.027 828.938 475.912 828.938C478.796 828.938 480.719 810.671 480.719 783.269C480.719 755.868 478.796 737.6 475.912 737.6C473.027 737.6 471.105 755.868 471.105 783.269Z" fill="#FFFDFD"/>
<path d="M605.706 783.269C605.706 810.671 607.629 828.938 610.513 828.938C613.397 828.938 615.32 814.516 615.801 796.249L616.282 764.04L626.858 795.287C633.588 814.997 640.798 827.015 645.606 827.977C652.816 829.419 653.778 824.131 653.778 783.75C653.778 746.734 652.336 737.6 647.048 737.6C641.279 737.6 640.318 743.369 641.279 764.04C642.241 778.462 641.279 790.48 639.356 790.48C637.914 790.48 632.626 778.462 627.819 764.04C623.012 748.176 616.762 737.6 612.436 737.6C607.148 737.6 605.706 746.734 605.706 783.269Z" fill="#FFFDFD"/>
<path d="M740.788 746.734C737.423 752.503 736.942 760.675 739.346 766.925C742.23 774.135 741.269 782.308 736.942 789.999C728.289 806.825 729.251 813.074 740.788 824.612C749.922 833.746 751.364 833.746 761.94 827.015C769.15 822.208 774.438 821.247 776.361 824.131C777.803 827.015 782.611 828.938 786.937 828.938C793.667 828.938 793.667 827.496 786.456 816.92C779.246 805.863 779.246 803.46 785.976 790.48C792.225 777.981 792.706 776.058 786.456 776.058C782.611 776.058 777.803 780.385 776.361 786.154C773.958 793.365 771.554 794.807 767.708 790.961C763.862 787.115 764.343 782.789 768.67 774.616C778.284 756.349 773.958 740.485 758.575 738.562C749.922 737.6 744.153 740.004 740.788 746.734ZM763.382 757.791C762.42 764.04 760.017 768.847 757.132 768.847C754.729 768.847 751.845 764.04 750.883 757.791C749.922 750.58 751.845 747.215 757.132 747.215C762.42 747.215 764.343 750.58 763.382 757.791ZM760.017 800.575C763.382 807.306 763.862 812.113 760.497 815.478C753.287 822.689 745.114 815.478 745.114 802.018C745.114 787.596 752.325 787.115 760.017 800.575Z" fill="#FFFDFD"/>
<path d="M874.909 783.269C874.909 810.671 876.831 828.938 879.716 828.938C882.6 828.938 884.523 810.671 884.523 783.269C884.523 755.868 882.6 737.6 879.716 737.6C876.831 737.6 874.909 755.868 874.909 783.269Z" fill="#FFFDFD"/>
<path d="M922.98 783.269C922.98 820.766 924.423 828.938 930.191 828.938C935.479 828.938 937.402 822.208 937.883 801.056L938.844 773.655L943.651 801.056C949.42 833.265 959.515 838.072 964.322 810.671C972.975 761.156 974.898 758.271 975.379 793.845C975.86 813.555 977.782 828.938 980.667 828.938C983.551 828.938 985.474 810.671 985.474 783.269C985.474 741.446 984.512 737.6 976.34 737.6C969.129 737.6 966.726 742.407 963.842 760.675C959.034 798.172 952.785 801.056 948.939 767.405C946.055 740.004 944.613 737.6 934.518 737.6C922.98 737.6 922.98 738.561 922.98 783.269Z" fill="#FFFDFD"/>
<path d="M1028.74 783.269C1028.74 810.671 1030.66 828.938 1033.55 828.938C1036.43 828.938 1038.35 814.036 1038.83 793.845L1039.31 759.233L1045.08 791.442C1053.74 841.437 1060.47 841.918 1070.08 793.845L1075.85 764.04L1076.33 796.249C1076.81 821.727 1078.25 828.938 1084.02 828.938C1089.79 828.938 1091.23 820.766 1091.23 783.269C1091.23 740.965 1090.27 737.6 1081.62 737.6C1072.48 737.6 1066.23 752.022 1060.95 785.673C1058.54 801.056 1054.7 791.442 1050.37 760.194C1047.97 741.927 1045.56 737.6 1037.87 737.6C1029.7 737.6 1028.74 741.446 1028.74 783.269Z" fill="#FFFDFD"/>
<path d="M1124.88 783.269C1124.88 820.766 1126.32 828.938 1132.09 828.938C1137.86 828.938 1139.3 820.766 1139.3 783.269C1139.3 745.772 1137.86 737.6 1132.09 737.6C1126.32 737.6 1124.88 745.772 1124.88 783.269Z" fill="#FFFDFD"/>
<path d="M1259.48 783.269C1259.48 820.766 1260.93 828.938 1266.69 828.938C1271.98 828.938 1273.91 823.65 1273.91 809.709C1273.91 793.845 1275.35 790.48 1283.52 790.48C1291.69 790.48 1293.13 793.845 1293.13 809.709C1293.13 823.65 1295.06 828.938 1300.34 828.938C1309 828.938 1310.44 804.421 1302.75 790.48C1299.38 784.231 1299.38 780.385 1302.75 778.462C1309.48 774.135 1309 750.58 1301.79 743.369C1298.42 740.004 1287.85 737.6 1277.75 737.6H1259.48V783.269ZM1292.17 763.079C1293.61 773.655 1291.69 776.058 1284 776.058C1275.83 776.058 1273.91 773.174 1273.91 761.156C1273.91 749.618 1275.83 746.734 1282.56 748.176C1287.37 749.137 1291.21 754.906 1292.17 763.079Z" fill="#FFFDFD"/>
<path d="M1352.74 755.387C1351.3 765.482 1346.97 786.154 1343.61 801.056C1338.32 824.131 1338.32 828.938 1343.61 828.938C1346.97 828.938 1351.3 823.65 1352.74 816.92C1354.67 809.228 1358.99 804.902 1365.24 804.902C1371.49 804.902 1375.82 809.228 1377.74 816.92C1379.18 823.65 1383.51 828.938 1386.87 828.938C1391.68 828.938 1392.16 824.612 1389.28 810.671C1386.87 801.056 1383.03 780.385 1379.66 765.001C1375.34 743.369 1372.45 737.6 1365.24 737.6C1358.51 737.6 1355.15 742.407 1352.74 755.387ZM1370.05 776.058C1370.05 783.75 1368.13 790.48 1365.24 790.48C1362.84 790.48 1360.43 783.75 1360.43 776.058C1360.43 767.886 1362.84 761.636 1365.24 761.636C1368.13 761.636 1370.05 767.886 1370.05 776.058Z" fill="#FFFDFD"/>
<path d="M1408.51 742.407C1408.51 744.811 1412.83 747.215 1418.12 747.215C1426.77 747.215 1427.74 750.58 1427.74 788.076C1427.74 821.247 1429.18 828.938 1434.95 828.938C1440.71 828.938 1442.16 821.247 1442.16 788.076C1442.16 750.58 1443.12 747.215 1451.77 747.215C1457.06 747.215 1461.39 744.811 1461.39 742.407C1461.39 739.523 1449.37 737.6 1434.95 737.6C1420.52 737.6 1408.51 739.523 1408.51 742.407Z" fill="#FFFDFD"/>
<path d="M1490.23 783.269C1490.23 810.671 1492.15 828.938 1495.04 828.938C1497.92 828.938 1499.84 810.671 1499.84 783.269C1499.84 755.868 1497.92 737.6 1495.04 737.6C1492.15 737.6 1490.23 755.868 1490.23 783.269Z" fill="#FFFDFD"/>
<path d="M1543.59 746.734C1540.7 752.022 1538.3 769.328 1538.3 785.192C1538.3 808.267 1540.22 816.439 1547.92 824.131C1559.93 836.149 1564.74 836.149 1575.8 825.092C1588.3 812.594 1592.62 780.866 1584.93 758.271C1580.12 742.888 1576.76 740.004 1563.78 738.562C1552.72 737.6 1547.43 739.523 1543.59 746.734ZM1571.95 756.348C1582.05 775.578 1575.8 820.766 1563.3 818.362C1545.99 814.997 1545.03 747.215 1562.34 747.215C1564.74 747.215 1569.07 751.541 1571.95 756.348Z" fill="#FFFDFD"/>
<path d="M1624.83 783.269C1624.83 810.671 1626.75 828.938 1629.64 828.938C1632.52 828.938 1634.44 814.516 1634.93 796.249L1635.41 764.04L1645.98 795.287C1652.71 814.997 1659.92 827.015 1664.73 827.977C1671.94 829.419 1672.9 824.131 1672.9 783.75C1672.9 746.253 1671.46 737.6 1665.69 737.6C1660.4 737.6 1658.96 742.407 1660.4 758.271C1663.77 790.961 1656.56 793.845 1646.94 764.04C1642.14 748.176 1635.89 737.6 1631.56 737.6C1626.27 737.6 1624.83 746.734 1624.83 783.269Z" fill="#FFFDFD"/>
<path d="M1836.35 783.269V828.938H1855.58C1866.15 828.938 1874.8 826.535 1874.8 824.131C1874.8 821.247 1868.07 819.324 1859.9 819.324C1846.44 819.324 1845.48 818.362 1846.92 803.46C1847.88 790.48 1850.77 787.596 1861.82 786.634C1879.61 784.711 1878.17 776.058 1859.9 776.058C1846.92 776.058 1845.48 774.616 1846.92 762.598C1847.88 752.503 1851.25 749.137 1861.82 748.176C1882.01 745.772 1877.21 737.6 1855.58 737.6H1836.35V783.269Z" fill="#FFFDFD"/>
<path d="M1908.45 783.75C1908.45 818.362 1909.9 829.419 1914.7 827.977C1917.59 826.535 1920.95 817.882 1921.91 807.786C1923.36 793.845 1925.28 790.48 1931.53 791.442C1937.3 792.403 1940.18 798.652 1941.14 811.151C1942.1 823.17 1944.99 828.938 1949.8 828.938C1956.53 828.938 1957.01 825.092 1950.76 785.673C1950.28 784.231 1951.72 777.5 1953.64 770.289C1959.41 749.618 1949.8 737.6 1927.68 737.6H1908.45V783.75ZM1939.7 761.636C1939.7 769.328 1936.82 774.135 1931.53 775.097C1924.8 776.539 1922.88 773.655 1922.88 761.636C1922.88 749.618 1924.8 746.734 1931.53 748.176C1936.82 749.137 1939.7 753.945 1939.7 761.636Z" fill="#FFFDFD"/>
<path d="M1985.37 740.965C1985.37 743.369 1990.18 764.04 1995.46 787.115C2009.41 843.36 2017.58 842.399 2030.08 784.231C2034.88 760.675 2038.25 740.484 2036.81 739.042C2031.52 733.754 2023.83 743.369 2023.35 755.868C2023.35 763.079 2020.46 777.5 2017.1 788.076L2010.85 807.306L2005.08 772.212C2000.75 748.657 1996.91 737.6 1992.1 737.6C1988.25 737.6 1985.37 739.042 1985.37 740.965Z" fill="#FFFDFD"/>
<path d="M2071.9 782.788C2071.9 819.324 2073.34 828.938 2078.63 828.938C2087.76 828.938 2087.28 741.927 2078.15 739.042C2073.34 737.119 2071.9 748.176 2071.9 782.788Z" fill="#FFFDFD"/>
<path d="M2127.66 748.176C2116.13 764.521 2117.09 811.632 2129.59 824.131C2134.87 829.419 2140.64 833.746 2143.05 833.746C2150.74 833.746 2168.04 818.362 2168.04 811.632C2168.04 802.498 2159.87 802.979 2154.58 813.074C2151.7 817.882 2146.89 819.805 2142.08 817.882C2136.32 815.478 2134.39 808.267 2134.39 788.557C2134.39 748.657 2142.56 736.639 2156.51 755.387C2164.2 765.963 2171.89 759.233 2165.16 748.176C2156.99 735.197 2136.8 735.197 2127.66 748.176Z" fill="#FFFDFD"/>
<path d="M2201.69 783.269V828.938H2220.92C2231.5 828.938 2240.15 826.535 2240.15 824.131C2240.15 821.247 2233.42 819.324 2225.25 819.324C2211.79 819.324 2210.83 818.362 2212.27 803.46C2213.23 790.48 2216.11 787.596 2227.17 786.634C2244.96 784.711 2243.52 776.058 2225.25 776.058C2212.27 776.058 2210.83 774.616 2212.27 762.598C2213.23 752.503 2216.6 749.137 2227.17 748.176C2247.36 745.772 2242.55 737.6 2220.92 737.6H2201.69V783.269Z" fill="#FFFDFD"/>
<path d="M2279.57 743.369C2266.59 756.348 2275.24 778.462 2298.32 790.48C2303.12 793.364 2307.45 800.095 2307.45 805.383C2307.45 817.882 2293.03 823.17 2287.26 813.074C2281.01 801.537 2272.84 802.979 2274.76 814.997C2278.13 839.514 2318.03 833.265 2320.91 808.267C2322.35 797.691 2318.51 790.961 2305.53 778.943C2287.74 762.598 2282.93 747.215 2295.43 747.215C2299.76 747.215 2304.09 750.58 2305.53 754.426C2309.85 765.482 2318.03 763.079 2316.1 750.58C2315.14 742.888 2310.82 739.523 2300.24 738.562C2292.07 737.6 2282.93 740.004 2279.57 743.369Z" fill="#FFFDFD"/>
<path d="M961.262 2.09208C959.754 3.25374 958.569 5.11847 958.569 6.24956C958.569 9.12314 970.565 17.5911 982.058 22.788C987.805 25.3864 993.372 28.8408 994.234 30.2776C995.239 31.7144 996.927 41.7719 998.112 52.716C1000.48 72.7088 1001.67 77.2943 1004.86 79.1591C1009.61 81.8798 1010.61 78.884 1012.62 56.8736C1013.48 48.2528 1014.63 40.7631 1015.17 40.3351C1015.68 39.7543 1023.29 42.5056 1032.05 46.2352C1044.05 51.2792 1048.11 53.7248 1048.11 55.7119C1048.11 57.3015 1048.97 60.2974 1049.8 62.315C1051.3 65.6166 1051.99 65.9223 1054.03 64.4855C1055.4 63.4766 1056.58 60.8783 1056.58 58.7384C1056.58 55.8648 1058.6 52.9912 1063.34 49.2616C1068.72 44.7984 1069.59 43.5145 1067.57 42.6585C1066.07 41.8025 1063.01 42.3834 1059.82 43.6673C1054.57 45.9601 1054.43 45.96 1045.63 40.9465C1040.75 38.073 1033.99 33.6098 1030.58 31.0419L1024.33 26.4564L1043.91 15.1149C1054.72 8.93972 1063.16 3.03976 1062.83 2.1838C1061.47 -0.964909 1048.65 1.02214 1032.95 6.92216C1024.15 10.2237 1015.57 13.5253 1014.02 14.259C1007.77 17.2854 1001.2 15.6957 986.512 7.77806C970.888 -0.475849 965.644 -1.79031 961.262 2.09208Z" fill="#E00B0B"/>
<path d="M1070.15 61.2213C1070.15 61.9498 1072.34 64.4997 1075.03 66.9281C1088.2 78.9185 1129.85 128.58 1144.21 149.707C1218.44 258.35 1230.75 359.828 1182.35 460.881C1175.92 474.298 1155.69 507.689 1151.81 511.696C1150.45 512.85 1149.44 514.276 1149.44 514.823C1149.44 515.976 1129.03 541.384 1119.23 552.221C1103.7 569.645 1085.65 587.039 1061.86 607.468L1037.57 628.595L1042.13 637.459C1044.67 642.468 1049.55 651.726 1052.75 658.161L1058.67 670L1063.04 667.298C1065.59 665.72 1078.22 655.308 1091.21 644.046C1148.4 594.506 1190.92 540.838 1215.72 486.592C1238.14 437.902 1245.57 404.359 1245.57 353.969C1245.39 273.618 1216.9 205.076 1153.79 133.285C1138.11 115.436 1109.9 90.0286 1086.8 72.7563C1082.74 69.6297 1077.36 65.4711 1074.81 63.4676C1072.16 61.6463 1070.15 60.4927 1070.15 61.2213Z" fill="#FFF9F9"/>
<path d="M881.608 297.015C882.611 298.72 884.149 301.886 884.794 303.896C885.653 305.906 887.657 310.778 889.517 314.767C891.378 318.634 897.927 333.249 904.154 346.982C910.381 360.715 917.968 377.493 920.974 384.222C924.016 390.951 935.969 417.594 947.743 443.659C959.338 469.572 976.193 506.933 985.104 526.695C993.872 546.304 1005.79 572.948 1011.52 585.676C1017.24 598.556 1022.61 609 1023.29 609C1024.15 609 1037.25 600.565 1052.56 590.091C1084.02 568.624 1082.02 572.765 1072.07 551.146C1068.88 543.99 1063.98 532.968 1061.12 526.665C1058.25 520.362 1055.39 513.906 1054.57 512.353C1053.71 510.77 1050.7 504.041 1047.84 497.311C1044.98 490.582 1041.29 482.269 1039.61 478.707C1036.24 470.972 1017.24 428.434 1011.84 416.407C989.113 365.16 971.112 324.632 965.064 311.174L957.656 294.7L918.612 294.274L879.569 294L881.608 297.015Z" fill="#FFF8F8"/>
</svg>
