<svg width="160" height="156" viewBox="0 0 160 156" fill="none" xmlns="http://www.w3.org/2000/svg">
<path d="M80.0007 0C35.8233 0 0 35.7454 0 79.8415C0 115.118 22.9226 145.046 54.7093 155.603C58.7075 156.342 60.1754 153.871 60.1754 151.762C60.1754 149.858 60.1012 143.569 60.0667 136.897C37.8105 141.727 33.1141 127.477 33.1141 127.477C29.475 118.248 24.2315 115.794 24.2315 115.794C16.973 110.839 24.7786 110.941 24.7786 110.941C32.8121 111.504 37.0421 119.169 37.0421 119.169C44.1774 131.375 55.7572 127.846 60.3224 125.806C61.0404 120.645 63.1137 117.123 65.4016 115.129C47.6324 113.111 28.953 106.264 28.953 75.6714C28.953 66.9546 32.0782 59.8322 37.1958 54.2409C36.3651 52.2299 33.6268 44.1093 37.9708 33.1117C37.9708 33.1117 44.6887 30.9659 59.9767 41.2958C66.3581 39.5267 73.2019 38.6396 80.0007 38.6092C86.7994 38.6396 93.6485 39.5267 100.042 41.2958C115.311 30.9659 122.02 33.1117 122.02 33.1117C126.375 44.1093 123.635 52.2299 122.804 54.2409C127.934 59.8322 131.038 66.9546 131.038 75.6714C131.038 106.337 112.323 113.089 94.5083 115.066C97.3778 117.544 99.9346 122.403 99.9346 129.851C99.9346 140.534 99.8419 149.132 99.8419 151.762C99.8419 153.887 101.282 156.376 105.337 155.592C137.107 145.023 160 115.106 160 79.8415C160 35.7454 124.182 0 80.0007 0ZM29.9628 113.736C29.7867 114.133 29.1614 114.252 28.5917 113.979C28.0115 113.719 27.6856 113.178 27.8737 112.78C28.0459 112.371 28.6725 112.258 29.2514 112.531C29.833 112.792 30.1642 113.338 29.9628 113.736ZM33.898 117.24C33.5165 117.593 32.7706 117.429 32.2645 116.871C31.7413 116.315 31.6432 115.57 32.0301 115.212C32.4235 114.859 33.1468 115.024 33.6715 115.581C34.1947 116.144 34.2967 116.883 33.898 117.24ZM36.5976 121.724C36.1075 122.064 35.306 121.745 34.8105 121.035C34.3204 120.325 34.3204 119.474 34.8211 119.132C35.3179 118.791 36.1075 119.098 36.6096 119.803C37.0984 120.525 37.0984 121.376 36.5976 121.724ZM41.1633 126.916C40.7248 127.399 39.7909 127.269 39.1073 126.611C38.4078 125.967 38.2131 125.054 38.6529 124.571C39.0967 124.087 40.036 124.223 40.7248 124.876C41.419 125.519 41.631 126.439 41.1633 126.916ZM47.0641 128.669C46.8707 129.295 45.9711 129.579 45.065 129.313C44.1602 129.04 43.568 128.307 43.7508 127.675C43.9389 127.046 44.8424 126.75 45.7552 127.034C46.6587 127.306 47.2522 128.033 47.0641 128.669ZM53.7793 129.413C53.8019 130.071 53.0335 130.617 52.0823 130.629C51.1258 130.651 50.3521 130.118 50.3415 129.47C50.3415 128.805 51.0927 128.264 52.0492 128.248C53.0004 128.23 53.7793 128.759 53.7793 129.413ZM60.3763 129.161C60.4903 129.803 59.8292 130.463 58.8846 130.639C57.956 130.808 57.0962 130.411 56.9783 129.774C56.863 129.116 57.536 128.456 58.4634 128.285C59.4093 128.121 60.2558 128.507 60.3763 129.161Z" fill="white"/>
</svg>
