<svg width="300" height="225" viewBox="0 0 300 225" fill="none" xmlns="http://www.w3.org/2000/svg">
<g clip-path="url(#clip0_1_91)">
<path d="M20.4545 225H68.1818V109.091L0 57.9545V204.545C0 215.864 9.17045 225 20.4545 225Z" fill="#4285F4"/>
<path d="M231.818 225H279.545C290.864 225 300 215.83 300 204.545V57.9545L231.818 109.091" fill="#34A853"/>
<path d="M231.818 20.4546V109.091L300 57.9546V30.6818C300 5.38638 271.125 -9.03408 250.909 6.13637" fill="#FBBC04"/>
<path d="M68.1818 109.091V20.4546L150 81.8182L231.818 20.4546V109.091L150 170.455" fill="#EA4335"/>
<path d="M0 30.6818V57.9546L68.1818 109.091V20.4546L49.0909 6.13637C28.8409 -9.03408 0 5.38638 0 30.6818Z" fill="#C5221F"/>
</g>
<defs>
<clipPath id="clip0_1_91">
<rect width="300" height="225" fill="white"/>
</clipPath>
</defs>
</svg>
