<svg width="62" height="53" viewBox="0 0 62 53" fill="none" xmlns="http://www.w3.org/2000/svg">
<g clip-path="url(#clip0_45_6)">
<path d="M58.9494 49.2297C59.0825 49.231 59.2143 49.2052 59.3369 49.1537C59.4594 49.1022 59.57 49.0263 59.6618 48.9305C59.7536 48.8348 59.8246 48.7213 59.8705 48.5972C59.9163 48.473 59.936 48.3408 59.9283 48.2087C59.9283 47.4846 59.4891 47.1387 58.5878 47.1387H57.1316V50.9297H57.6793V49.2772H58.3524L58.3678 49.2973L59.4122 50.9297H59.998L58.8742 49.2402L58.9494 49.2297ZM58.316 48.85H57.6809V47.5683H58.4859C58.9017 47.5683 59.3758 47.6359 59.3758 48.1774C59.3758 48.8001 58.8961 48.85 58.3127 48.85" fill="white"/>
<path d="M44.6613 44.4786H36.8946V32.383C36.8946 29.4987 36.8429 25.7857 32.8551 25.7857C28.81 25.7857 28.191 28.9283 28.191 32.173V44.4778H20.4243V19.6044H27.8804V23.0036H27.9847C28.7309 21.7348 29.8092 20.6911 31.1046 19.9836C32.4001 19.276 33.8643 18.9312 35.3413 18.9857C43.2132 18.9857 44.6646 24.1348 44.6646 30.8335L44.6613 44.4786ZM11.6609 16.2043C10.7694 16.2045 9.89796 15.9418 9.15668 15.4494C8.4154 14.957 7.83762 14.2571 7.49634 13.4382C7.15506 12.6192 7.06562 11.7181 7.23937 10.8486C7.41312 9.97909 7.84226 9.18038 8.47248 8.55343C9.1027 7.92648 9.90572 7.49945 10.78 7.32635C11.6542 7.15325 12.5605 7.24185 13.3841 7.58094C14.2077 7.92004 14.9118 8.4944 15.4071 9.23139C15.9025 9.96839 16.167 10.8349 16.1672 11.7214C16.1673 12.31 16.0508 12.8929 15.8244 13.4367C15.598 13.9805 15.2661 14.4747 14.8477 14.891C14.4292 15.3073 13.9324 15.6375 13.3856 15.8629C12.8388 16.0882 12.2527 16.2042 11.6609 16.2043ZM15.5442 44.4786H7.76941V19.6044H15.5442V44.4786ZM48.5334 0.0675163H3.86665C2.85284 0.0561388 1.87592 0.445489 1.15063 1.15001C0.425345 1.85453 0.0110302 2.81658 -0.00134277 3.82476V48.4281C0.0106067 49.4368 0.424678 50.3995 1.14994 51.1048C1.8752 51.81 2.85234 52.2001 3.86665 52.1894H48.5334C49.5497 52.2021 50.5296 51.8131 51.2577 51.1078C51.9858 50.4026 52.4027 49.4388 52.4167 48.4281V3.82154C52.4022 2.81136 51.9851 1.84822 51.257 1.14371C50.5288 0.439212 49.5492 0.0509737 48.5334 0.0642968" fill="white"/>
<path d="M58.3824 45.45C57.4374 45.459 56.5345 45.8398 55.8711 46.5091C55.2078 47.1783 54.8379 48.0817 54.8424 49.0214C54.847 49.9611 55.2256 50.8608 55.8954 51.5237C56.5652 52.1866 57.4717 52.5588 58.4167 52.5588C59.3617 52.5588 60.2682 52.1866 60.9381 51.5237C61.6079 50.8608 61.9865 49.9611 61.991 49.0214C61.9956 48.0817 61.6257 47.1783 60.9623 46.5091C60.299 45.8398 59.396 45.459 58.4511 45.45H58.3824ZM58.3824 52.1518C57.7626 52.1621 57.1536 51.9893 56.6326 51.6554C56.1115 51.3215 55.7017 50.8415 55.455 50.276C55.2082 49.7104 55.1357 49.0849 55.2465 48.4784C55.3573 47.8718 55.6465 47.3116 56.0774 46.8685C56.5084 46.4254 57.0618 46.1194 57.6676 45.9891C58.2735 45.8587 58.9047 45.91 59.4813 46.1364C60.0578 46.3628 60.5539 46.7541 60.9068 47.2609C61.2598 47.7677 61.4536 48.3672 61.4639 48.9835C61.4639 49.0012 61.4639 49.0181 61.4639 49.0358C61.4813 49.8444 61.175 50.6267 60.6124 51.2107C60.0499 51.7948 59.2771 52.1327 58.464 52.1502H58.3832" fill="white"/>
</g>
<defs>
<clipPath id="clip0_45_6">
<rect width="61.9914" height="52.5579" fill="white" transform="translate(0 0.0644531)"/>
</clipPath>
</defs>
</svg>
